<svg id="Logo" xmlns="http://www.w3.org/2000/svg" width="106" height="122.5" viewBox="0 0 106 122.5">
  <rect id="Прямоугольник_3" data-name="Прямоугольник 3" width="105.945" height="106.047" fill="#78777a"/>
  <rect id="Прямоугольник_4" data-name="Прямоугольник 4" width="102.316" height="102.417" transform="translate(1.814 1.815)" fill="#fff"/>
  <path id="Контур_3" data-name="Контур 3" d="M-878.983-599.791c-1.176-.029-2.563.355-2.628,1.586-.046,1,.735,1.292.919,2.3a3.512,3.512,0,0,1-1.241,3.092l.261.38a10.7,10.7,0,0,0,4.625-4.231c.763-1.477.13-3.067-1.935-3.126m-28.963.364a2.354,2.354,0,0,0-2.6,2.347,2.355,2.355,0,0,0,2.6,2.343,2.353,2.353,0,0,0,2.586-2.343,2.351,2.351,0,0,0-2.586-2.347m35.45,13.194c-1.69-.539-4.035-1.466-4.035-2.612,0-1.671,2.322-1.885,4.3-1.594a9.409,9.409,0,0,1,5.123,3.027l.3-.113.034-3.946a25.352,25.352,0,0,0-6.035-.9c-6.564-.115-8.108,2.857-8.177,4.641-.146,3.928,3.893,5.327,7.4,6.549,2.165.754,4.161,1.31,4.161,2.455,0,1.406-1.361,2.319-4.38,2.319a9.37,9.37,0,0,1-7.269-3.8l-.3.144.855,4.856.226.14c1.655-.578,3.238.454,6.663.5,6.71.085,8.281-3.452,8.492-5.1.449-3.568-3.173-5.228-7.354-6.559m-11.852,9.125a10.39,10.39,0,0,1-.218-2.2l-.012-20.43-7.028,1.206-.046.33c1.057.491,1.418.894,1.625,1.807a10.17,10.17,0,0,1,.265,2.228v14.859a6.283,6.283,0,0,1-.61,3.122,2.571,2.571,0,0,1-1.268.88l.073.337h8.652l.085-.328a2.445,2.445,0,0,1-1.517-1.815m-10.262,0a10.693,10.693,0,0,1-.218-2.2l0-20.43-7.031,1.206-.046.33c1.048.491,1.422.894,1.621,1.807a10.111,10.111,0,0,1,.267,2.228l0,14.859a6.3,6.3,0,0,1-.612,3.122,2.571,2.571,0,0,1-1.258.88l.065.337h8.656l.085-.328a2.459,2.459,0,0,1-1.525-1.815m-10.144-.305a13.052,13.052,0,0,1-.236-2.558l.079-12.159-6.792,1.118-.074.323a2.933,2.933,0,0,1,1.448,2.117,12.041,12.041,0,0,1,.2,2.409l-.054,6.192a8.447,8.447,0,0,1-.645,3.64c-.238.456-.493.655-1.274,1.018l.075.338h8.69l.1-.328a2.724,2.724,0,0,1-1.517-2.11m-8.519,2.125-.1.322h-9.422l-.087-.334a3.937,3.937,0,0,0,1.275-.911,4.213,4.213,0,0,0,.881-2.994v-9.19h-9.06v9.19a8.444,8.444,0,0,0,.256,1.969c.209.788.7,1.29,1.863,1.941l-.086.328h-9.539l-.078-.334a3.6,3.6,0,0,0,1.3-.914,4.146,4.146,0,0,0,.881-2.99l-.008-15.888a8.41,8.41,0,0,0-.251-1.989c-.249-.812-.772-1.337-1.931-1.946l.078-.334h9.547l.089.326a4.189,4.189,0,0,0-1.27,1.005,4.488,4.488,0,0,0-.855,2.974v4.413h9.065v-4.421a7.914,7.914,0,0,0-.257-1.984,3.155,3.155,0,0,0-2-1.976l.073-.338h9.687l.082.334a3.99,3.99,0,0,0-1.306.9,4.342,4.342,0,0,0-.847,3.067l0,15.849a7.579,7.579,0,0,0,.258,1.973,3.7,3.7,0,0,0,1.764,1.947" transform="translate(954.525 668.721)" fill="#231f20"/>
  <path id="Контур_4" data-name="Контур 4" d="M-937.782-647.3l.19.142c1.911-1.772,3.863-3.51,5.829-5.246h27.772v-21.036c1.51-.928,2.987-1.776,4.519-2.646V-652.4h27.795v-35.265a93.177,93.177,0,0,1,17.567-2.987v-.242c-47.7-4.7-82.943,42.626-83.671,43.6" transform="translate(954.724 713.866)" fill="#0054a4"/>
  <path id="Контур_5" data-name="Контур 5" d="M-949.766-646.552l.176.115c6.928-7.865,32.739-47.594,79.445-50.255v-.249c-41.364-4.556-68.834,34.026-79.62,50.388" transform="translate(960.647 716.872)" fill="#ee2036"/>
  <path id="Контур_6" data-name="Контур 6" d="M-834.281-706.867v-4.769h-27.752v11.166a63.258,63.258,0,0,1,27.752-6.4" transform="translate(917.285 723.945)" fill="#ee2036"/>
  <path id="Контур_7" data-name="Контур 7" d="M-925.881-673.773v-37.864h27.772v13.5c-11.322,6.41-20.56,15.482-27.772,24.361" transform="translate(948.842 723.945)" fill="#ee2036"/>
  <path id="Контур_8" data-name="Контур 8" d="M-884.393-511.5h-1.691v5.967h1.691Zm-28.008,0h-1.691v5.967h1.691Zm-54.794-.245h2.368v-1.58h-6.45v1.58h2.369v6.212h1.713Zm6.338,1.9h.089v-1.77a1.841,1.841,0,0,0-1.9,1.314v-1.2h-1.69v5.967h1.69v-2.2c0-1.425.69-2.1,1.813-2.1m4.392,2.2c0,.613-.534,1.046-1.323,1.046-.545,0-.923-.267-.923-.723v-.023c0-.534.445-.824,1.168-.824a2.61,2.61,0,0,1,1.079.223Zm-.033,2.1h1.635V-509a2.6,2.6,0,0,0-.645-1.9,2.749,2.749,0,0,0-2.013-.668,5.255,5.255,0,0,0-2.313.478l.422,1.291a4.383,4.383,0,0,1,1.646-.323c.845,0,1.279.39,1.279,1.091v.1a4.217,4.217,0,0,0-1.457-.245c-1.412,0-2.4.6-2.4,1.9v.022a1.844,1.844,0,0,0,2.046,1.826,2.29,2.29,0,0,0,1.8-.757Zm6.861,0h1.691V-509.4a1.956,1.956,0,0,0-2.025-2.215,2.109,2.109,0,0,0-1.746.957v-.846h-1.69v5.967h1.69v-3.328c0-.8.412-1.214,1.057-1.214s1.023.412,1.023,1.214Zm7.527-1.814v-.022c0-1.091-.968-1.492-1.8-1.77-.645-.223-1.212-.379-1.212-.713v-.022c0-.234.211-.412.623-.412a3.527,3.527,0,0,1,1.613.557l.645-1.168a4.119,4.119,0,0,0-2.224-.69,1.948,1.948,0,0,0-2.18,1.892v.022c0,1.157.945,1.547,1.779,1.792.657.2,1.235.323,1.235.691v.022c0,.267-.223.445-.712.445a3.369,3.369,0,0,1-1.879-.712l-.723,1.113a4.173,4.173,0,0,0,2.558.9c1.29,0,2.279-.6,2.279-1.926m3.781-4.964a2.151,2.151,0,0,1,.767.144v-1.4a3.771,3.771,0,0,0-1.2-.166,1.851,1.851,0,0,0-1.368.468,1.969,1.969,0,0,0-.478,1.446v.379h-.7v1.391h.7v4.519h1.69v-4.519h1.346v-1.38h-1.368v-.233c0-.446.223-.646.612-.646m6.06,3.829a1.528,1.528,0,0,1-1.546,1.626,1.585,1.585,0,0,1-1.568-1.648v-.022a1.529,1.529,0,0,1,1.546-1.626,1.584,1.584,0,0,1,1.568,1.647Zm1.669-.022v-.022a3.1,3.1,0,0,0-3.215-3.084,3.13,3.13,0,0,0-3.236,3.106v.022a3.1,3.1,0,0,0,3.214,3.083,3.13,3.13,0,0,0,3.236-3.106m4.725-1.336h.089v-1.77a1.841,1.841,0,0,0-1.9,1.314v-1.2h-1.69v5.967h1.69v-2.2c0-1.425.69-2.1,1.813-2.1m8.551,4.308h1.691v-3.885c0-1.436-.757-2.193-2.013-2.193a2.457,2.457,0,0,0-1.958.946,1.782,1.782,0,0,0-1.679-.946,2.13,2.13,0,0,0-1.757.957v-.846h-1.69v5.967h1.69v-3.328c0-.8.389-1.214,1.023-1.214s.99.412.99,1.214v3.328h1.69v-3.328c0-.8.39-1.214,1.023-1.214s.99.412.99,1.214Zm3.19-6.623h1.779v-1.5h-1.779Zm7.1,6.623h1.69V-509.4a1.956,1.956,0,0,0-2.025-2.215,2.109,2.109,0,0,0-1.746.957v-.846h-1.69v5.967h1.69v-3.328c0-.8.412-1.214,1.057-1.214s1.024.412,1.024,1.214Zm7.483-3.272a1.378,1.378,0,0,1-1.457,1.381,1.363,1.363,0,0,1-1.446-1.381v-.022a1.368,1.368,0,0,1,1.446-1.38,1.377,1.377,0,0,1,1.457,1.38Zm.912,4.274a3.2,3.2,0,0,0,.756-2.348v-4.62h-1.69v.779a2.415,2.415,0,0,0-1.924-.89,2.625,2.625,0,0,0-2.647,2.783v.022a2.62,2.62,0,0,0,2.647,2.783,2.329,2.329,0,0,0,1.946-.969v.289c0,1.069-.545,1.625-1.7,1.625a3.89,3.89,0,0,1-2.013-.545l-.578,1.269a5.651,5.651,0,0,0,2.635.624,3.491,3.491,0,0,0,2.569-.8m5.78-1h5.594v-1.558h-3.881v-6.233h-1.713Zm6.738-6.623h1.779v-1.5h-1.779Zm6.672,6.668,2.347-6.012h-1.758l-1.345,4-1.335-4h-1.79l2.346,6.012Zm6.905-3.5H-875.1a1.33,1.33,0,0,1,1.29-1.269,1.279,1.279,0,0,1,1.257,1.269m1.624,1.057c.011-.155.022-.311.022-.445,0-1.692-.912-3.239-2.9-3.239a2.969,2.969,0,0,0-2.947,3.1v.022a2.983,2.983,0,0,0,3.114,3.084,2.981,2.981,0,0,0,2.436-1.113l-.968-.857a1.952,1.952,0,0,1-1.445.612,1.381,1.381,0,0,1-1.457-1.169Zm2.634-1.925v-.022c0-.234.211-.412.622-.412a3.53,3.53,0,0,1,1.613.557l.645-1.168a4.117,4.117,0,0,0-2.224-.69,1.949,1.949,0,0,0-2.18,1.892v.022c0,1.157.946,1.547,1.779,1.792.657.2,1.235.323,1.235.691v.022c0,.267-.223.445-.712.445a3.371,3.371,0,0,1-1.88-.712l-.723,1.113a4.173,4.173,0,0,0,2.558.9c1.29,0,2.279-.6,2.279-1.926v-.022c0-1.091-.967-1.492-1.8-1.77-.645-.223-1.212-.379-1.212-.713" transform="translate(971.279 626.232)" fill="#fff"/>
</svg>
