<svg xmlns="http://www.w3.org/2000/svg" xmlns:xlink="http://www.w3.org/1999/xlink" width="263" height="263" viewBox="22 7 245 245">
  <defs>
    <clipPath id="clip-path">
      <circle id="Эллипс_16" data-name="Эллипс 16" cx="107.5" cy="107.5" r="107.5" fill="#ed1b34" stroke="#fff" stroke-miterlimit="10" stroke-width="3"/>
    </clipPath>
    <filter id="Эллипс_17" x="0" y="0" width="263" height="263" filterUnits="userSpaceOnUse">
      <feOffset dy="15" input="SourceAlpha"/>
      <feGaussianBlur stdDeviation="7.5" result="blur"/>
      <feFlood flood-opacity="0.451"/>
      <feComposite operator="in" in2="blur"/>
      <feComposite in="SourceGraphic"/>
    </filter>
  </defs>
  <g id="Сгруппировать_71" data-name="Сгруппировать 71" transform="translate(-581.585 -1860.898)">
    <g id="Сгруппировать_75" data-name="Сгруппировать 75" transform="translate(605.585 1869.898)">
      <circle id="Эллипс_15" data-name="Эллипс 15" cx="107.5" cy="107.5" r="107.5" fill="#ed1b34" stroke="rgba(0,0,0,0)" stroke-width="1"/>
      <g id="Сгруппировать_74" data-name="Сгруппировать 74" clip-path="url(#clip-path)">
        <path id="Контур_52" data-name="Контур 52" d="M815.527,2063.766c-32.368,52.119-96.357,52.9-116.651,45.17l-16.666-50.93-.84-2.593a135.769,135.769,0,0,1,4.951-34.316,196.632,196.632,0,0,1,14.411-36.3q7.241-14.16,23.482-38.6a19.937,19.937,0,0,0,6.468-3.434q6.1-4.951,6.4-13.95l25.583-23.318.215-.195.615-.563Z" transform="translate(-603.693 -1869.028)" fill="#9b0b20" stroke="rgba(0,0,0,0)" stroke-width="1" fill-rule="evenodd"/>
      </g>
      <g transform="matrix(1, 0, 0, 1, -24, -9)" filter="url(#Эллипс_17)">
        <circle id="Эллипс_17-2" data-name="Эллипс 17" cx="107.5" cy="107.5" r="107.5" transform="translate(24 9)" fill="none" stroke="#fff" stroke-miterlimit="10" stroke-width="3"/>
      </g>
    </g>
    <g id="פרס_ראשון_שק_אוכל_גדול_של_הילס" data-name="פרס ראשון שק אוכל גדול של הילס" transform="translate(661.007 1906.167)">
      <g id="Сгруппировать_76" data-name="Сгруппировать 76" style="isolation: isolate">
        <path id="Контур_53" data-name="Контур 53" d="M659.657,1905.284v25.04h75.868q-5.812,8.411-10.772,15.857-16.251,24.428-23.482,38.6a196.666,196.666,0,0,0-14.411,36.3,135.772,135.772,0,0,0-4.951,34.316c-.021.861-.031,1.723-.031,2.593h31.753a145.711,145.711,0,0,1,3.956-34.52,187.573,187.573,0,0,1,10.783-31.753,278.986,278.986,0,0,1,15.989-30.727q9.148-15.284,19.454-31.539v-24.169Z" transform="translate(-659.657 -1905.284)" fill="#fff" stroke="rgba(0,0,0,0)" stroke-width="1"/>
      </g>
    </g>
  </g>
</svg>
