<svg xmlns="http://www.w3.org/2000/svg" width="86" height="86.005" viewBox="0 0 86 86.005">
  <g id="Сгруппировать_91" data-name="Сгруппировать 91" transform="translate(-332.45 -405.539)">
    <g id="Сгруппировать_89" data-name="Сгруппировать 89" transform="translate(335.45 408.539)">
      <g id="Контур_61" data-name="Контур 61" transform="translate(-335.45 -408.539)" fill="#0054a4">
        <path d="M 375.4500122070312 490.0437316894531 C 369.8478393554688 490.0437316894531 364.41259765625 488.9463500976562 359.2952880859375 486.7820739746094 C 354.353271484375 484.69189453125 349.9152221679688 481.6998901367188 346.1045227050781 477.8891906738281 C 342.2938232421875 474.0784912109375 339.3018493652344 469.6404724121094 337.2117004394531 464.6984252929688 C 335.0473937988281 459.5811157226562 333.9500122070312 454.1459045410156 333.9500122070312 448.5437316894531 C 333.9500122070312 442.9415588378906 335.0473937988281 437.506103515625 337.211669921875 432.3883361816406 C 339.3018493652344 427.44580078125 342.2938232421875 423.0072631835938 346.1044616699219 419.1959838867188 C 349.9152221679688 415.3846130371094 354.3532104492188 412.3920593261719 359.2951965332031 410.3014831542969 C 364.41259765625 408.1366577148438 369.8478698730469 407.0390014648438 375.4500122070312 407.0390014648438 C 381.05224609375 407.0390014648438 386.4875793457031 408.1366577148438 391.6050109863281 410.3014831542969 C 396.5469970703125 412.3920593261719 400.9850158691406 415.3846130371094 404.7957458496094 419.1959838867188 C 408.6063537597656 423.0072631835938 411.5982666015625 427.44580078125 413.6884155273438 432.3883361816406 C 415.8526611328125 437.5060729980469 416.9500122070312 442.9415283203125 416.9500122070312 448.5437316894531 C 416.9500122070312 450.2078857421875 416.8507385253906 451.8681945800781 416.6549682617188 453.4785461425781 C 416.1379699707031 457.8519287109375 414.9315795898438 462.0940856933594 413.0698547363281 466.082275390625 C 411.2566833496094 469.9665222167969 408.8569946289062 473.5384216308594 405.9374694824219 476.6987609863281 C 403.0273132324219 479.8489685058594 399.6666259765625 482.5191650390625 395.94873046875 484.6351318359375 C 392.1527709960938 486.7955322265625 388.0617980957031 488.3326721191406 383.7895202636719 489.2038269042969 C 381.0581359863281 489.7611389160156 378.2522583007812 490.0437316894531 375.4500122070312 490.0437316894531 Z" stroke="none"/>
        <path d="M 375.4500122070312 488.5437316894531 C 378.2009582519531 488.5437316894531 380.8908081054688 488.2643737792969 383.4898071289062 487.7340698242188 C 400.2085571289062 484.3249816894531 413.1346435546875 470.4802856445312 415.1659240722656 453.2975158691406 C 415.3553161621094 451.73974609375 415.4500122070312 450.153564453125 415.4500122070312 448.5437316894531 C 415.4500122070312 426.450927734375 397.5432739257812 408.5390014648438 375.4500122070312 408.5390014648438 C 353.357177734375 408.5390014648438 335.4500122070312 426.450927734375 335.4500122070312 448.5437316894531 C 335.4500122070312 470.6365356445312 353.357177734375 488.5437316894531 375.4500122070312 488.5437316894531 M 375.4500122070312 491.5437316894531 C 369.6460266113281 491.5437316894531 364.0141906738281 490.4064636230469 358.7109985351562 488.16357421875 C 353.5901489257812 485.9977722167969 348.9918518066406 482.8978271484375 345.0438842773438 478.9498596191406 C 341.0958862304688 475.0018615722656 337.9959716796875 470.4035949707031 335.8301696777344 465.28271484375 C 333.5872802734375 459.9795227050781 332.4500122070312 454.3477172851562 332.4500122070312 448.5437316894531 C 332.4500122070312 442.73974609375 333.5872497558594 437.1077270507812 335.8301086425781 431.8041076660156 C 337.9959106445312 426.6827697753906 341.0958251953125 422.0839538574219 345.043701171875 418.1354370117188 C 348.9917297363281 414.1867370605469 353.5899963378906 411.0862426757812 358.7107849121094 408.9199829101562 C 364.0141296386719 406.6765441894531 369.6460266113281 405.5390014648438 375.4500122070312 405.5390014648438 C 381.2541198730469 405.5390014648438 386.8860473632812 406.6765441894531 392.1894226074219 408.9199829101562 C 397.3102111816406 411.0862121582031 401.9084777832031 414.1867370605469 405.8565063476562 418.1354370117188 C 409.8043518066406 422.0839538574219 412.9042053222656 426.6827697753906 415.0699768066406 431.8041076660156 C 417.3128051757812 437.1077270507812 418.4500122070312 442.73974609375 418.4500122070312 448.5437316894531 C 418.4500122070312 450.265869140625 418.3473510742188 451.984619140625 418.1448364257812 453.6527099609375 C 417.6082153320312 458.1888732910156 416.3580322265625 462.58447265625 414.4290771484375 466.7167663574219 C 412.55029296875 470.7415161132812 410.0640258789062 474.4423828125 407.0392761230469 477.7166137695312 C 404.0244140625 480.9801635742188 400.5426635742188 483.7464904785156 396.690673828125 485.9387817382812 C 392.7567749023438 488.1777038574219 388.5170288085938 489.7707214355469 384.0892028808594 490.673583984375 C 381.2596130371094 491.2509460449219 378.3528442382812 491.5437316894531 375.4500122070312 491.5437316894531 Z" stroke="none" fill="#fff"/>
      </g>
    </g>
    <path id="Контур_62" data-name="Контур 62" d="M431.154,470.154l-21.6-21.6L390.4,443.315s-12.784,3.314-17.409,11.885c-6.675,11.127-1.372,25.362-1.372,25.362l-6.086,11.947,11.847,11.847a39.719,39.719,0,0,0,38.428-6.019C430.567,487.349,431.154,470.154,431.154,470.154Z" transform="translate(-15.839 -18.31)" fill="#003672"/>
    <g id="Сгруппировать_90" data-name="Сгруппировать 90" transform="translate(349.693 422.882)">
      <path id="Контур_63" data-name="Контур 63" d="M391.911,438.833a25.372,25.372,0,0,0-22.168,38.108l-4.211,13.208,14.033-3.663a25.367,25.367,0,1,0,12.346-47.654Zm-.425,46.589a21.122,21.122,0,0,1-11.3-3.378l-.3.08-8.125,2.12,2.517-7.892a21.226,21.226,0,1,1,17.208,9.071Z" transform="translate(-365.532 -438.832)" fill="#fff"/>
      <path id="Контур_64" data-name="Контур 64" d="M403.043,473.212a1.869,1.869,0,0,1-.018,2.071c-.758.919-1.381,1.617-1.381,1.617s-.665.479-.013,1.453,3.345,5.186,8.041,7.079a1.555,1.555,0,0,0,2.078-.774l1.514-1.924s.357-.482,1.5.014,4.737,2.288,4.737,2.288.659.226.518,1.194-.527,4.709-5.73,5.059c0,0-5.023.131-10.622-4.282a30.353,30.353,0,0,1-7.316-8.558c-.09-.159-.176-.312-.256-.462a9.593,9.593,0,0,1-1.132-4.589c0-.177.009-.361.023-.551a5.413,5.413,0,0,1,3.391-4.833s2.073-.289,2.423.022Z" transform="translate(-381.023 -454.133)" fill="#fff"/>
    </g>
  </g>
</svg>
