<svg xmlns="http://www.w3.org/2000/svg" xmlns:xlink="http://www.w3.org/1999/xlink" width="103" height="103" viewBox="0 0 103 103">
  <defs>
    <clipPath id="clip-path">
      <path id="Контур_26" data-name="Контур 26" d="M669.04,527.971a50,50,0,1,1-50-50A49.782,49.782,0,0,1,669.04,527.971Z" transform="translate(-569.04 -477.97)" fill="#0054a4" stroke="#fff" stroke-miterlimit="10" stroke-width="6"/>
    </clipPath>
  </defs>
  <g id="Сгруппировать_52" data-name="Сгруппировать 52" transform="translate(-567.54 -476.47)">
    <g id="Сгруппировать_51" data-name="Сгруппировать 51" transform="translate(569.04 477.97)">
      <path id="Контур_24" data-name="Контур 24" d="M669.04,527.971a50,50,0,1,1-50-50A49.782,49.782,0,0,1,669.04,527.971Z" transform="translate(-569.04 -477.97)" fill="#0054a4"/>
      <g id="Сгруппировать_50" data-name="Сгруппировать 50" transform="translate(0 0)" clip-path="url(#clip-path)">
        <path id="Контур_25" data-name="Контур 25" d="M717.54,639.414a50.07,50.07,0,0,1-60.312,20.4l-10.107-30.894-.154-.466a6.063,6.063,0,0,1-.237-1.693V597.643a6.1,6.1,0,0,1,.2-1.573h56.424Z" transform="translate(-625.027 -563.078)" fill="#003672" fill-rule="evenodd"/>
      </g>
      <path id="Контур_27" data-name="Контур 27" d="M669.04,527.971a50,50,0,1,1-50-50A49.782,49.782,0,0,1,669.04,527.971Z" transform="translate(-569.04 -477.97)" fill="none" stroke="#fff" stroke-miterlimit="10" stroke-width="3"/>
    </g>
    <path id="Контур_28" data-name="Контур 28" d="M703.326,585.716v29.123a6.214,6.214,0,0,1-6.2,6.2h-11.37l-8.962,9.395q-1.7,1.944-3.755.045l-8.763-9.439h-11.35a6.215,6.215,0,0,1-5.8-4.037l-.154-.466a6.063,6.063,0,0,1-.237-1.693V585.716a6.1,6.1,0,0,1,.2-1.573,6.216,6.216,0,0,1,5.992-4.623h44.2a6.216,6.216,0,0,1,5.992,4.623A6.1,6.1,0,0,1,703.326,585.716Z" transform="translate(-55.991 -73.182)" fill="#fff" fill-rule="evenodd"/>
  </g>
</svg>
