<svg xmlns="http://www.w3.org/2000/svg" xmlns:xlink="http://www.w3.org/1999/xlink" width="103" height="103" viewBox="0 0 103 103">
  <defs>
    <clipPath id="clip-path">
      <path id="Контур_20" data-name="Контур 20" d="M318.315,91.739a50,50,0,0,1-44.493,49.7q-2.2.243-4.453.291c-.352.008-.7.011-1.056.011a50,50,0,1,1,50-50Z" transform="translate(-218.315 -41.74)" fill="#0054a4" stroke="#fff" stroke-miterlimit="10" stroke-width="6"/>
    </clipPath>
  </defs>
  <g id="Сгруппировать_49" data-name="Сгруппировать 49" transform="translate(-216.815 -40.24)">
    <g id="Сгруппировать_47" data-name="Сгруппировать 47" transform="translate(218.315 41.74)">
      <path id="Контур_18" data-name="Контур 18" d="M318.315,91.739a50,50,0,0,1-44.493,49.7q-2.2.243-4.453.291c-.352.008-.7.011-1.056.011a50,50,0,1,1,50-50Z" transform="translate(-218.315 -41.74)" fill="#0054a4"/>
      <g id="Сгруппировать_46" data-name="Сгруппировать 46" transform="translate(0 0)" clip-path="url(#clip-path)">
        <path id="Контур_19" data-name="Контур 19" d="M364.523,223.83a49.939,49.939,0,0,1-35.112,20.538c-.377.042-.754.078-1.131.112-.176.017-.352.031-.525.042s-.372.028-.556.042c-.492.031-.983.056-1.478.073-.254.011-.508.017-.763.022-.352.008-.7.011-1.056.011a49.837,49.837,0,0,1-19.747-4.051l-8.328-25.455-.369-1.131c-.006-.059-.008-.117-.008-.179V184.972a2.394,2.394,0,0,1,.034-.4h14.364l.673,2.059,4.092,12.509v-13.82a2.753,2.753,0,0,1,.1-.749h36.958l.263.8.31.95Z" transform="translate(-273.902 -144.67)" fill="#003672" fill-rule="evenodd"/>
      </g>
      <path id="Контур_21" data-name="Контур 21" d="M318.315,91.739a50,50,0,0,1-44.493,49.7q-2.2.243-4.453.291c-.352.008-.7.011-1.056.011a50,50,0,1,1,50-50Z" transform="translate(-218.315 -41.74)" fill="none" stroke="#fff" stroke-miterlimit="10" stroke-width="3"/>
    </g>
    <g id="Сгруппировать_48" data-name="Сгруппировать 48" transform="translate(239.862 58.192)">
      <path id="Контур_22" data-name="Контур 22" d="M310.516,179.647v28.882A2.468,2.468,0,0,1,308.047,211H297.914a2.463,2.463,0,0,1-2.092-1.157,2.423,2.423,0,0,1-.369-1.131c-.006-.059-.008-.117-.008-.179V179.647a2.394,2.394,0,0,1,.034-.4,2.467,2.467,0,0,1,2.436-2.064h10.132a2.467,2.467,0,0,1,2.436,2.064A2.391,2.391,0,0,1,310.516,179.647Z" transform="translate(-295.445 -155.797)" fill="#fff"/>
      <path id="Контур_23" data-name="Контур 23" d="M401.621,128.079l-4.995,18.745a12.346,12.346,0,0,1-11.928,9.163H366.858a2.807,2.807,0,0,1-2.813-2.81V124.831a2.753,2.753,0,0,1,.1-.749,2.788,2.788,0,0,1,.36-.785,2.848,2.848,0,0,1,.5-.57s.715-.71.715-.71l7.272-7.107a12.82,12.82,0,0,0,3.453-5.975l1.556-6.07a2.959,2.959,0,0,1,5.045-1.271c1.654,1.813,2.469,6.274,1.673,9.4a30.221,30.221,0,0,1-5.486,11.026h17.731a4.79,4.79,0,0,1,3.95,2.064,4.608,4.608,0,0,1,.455.8,4.789,4.789,0,0,1,.251,3.2Z" transform="translate(-344.881 -100.634)" fill="#fff"/>
    </g>
  </g>
</svg>
