<svg xmlns="http://www.w3.org/2000/svg" width="86" height="86.005" viewBox="0 0 86 86.005">
  <g id="Сгруппировать_88" data-name="Сгруппировать 88" transform="translate(-577.864 -405.539)">
    <g id="Сгруппировать_87" data-name="Сгруппировать 87" transform="translate(580.864 408.539)">
      <g id="Контур_58" data-name="Контур 58" transform="translate(-580.864 -408.539)" fill="#0054a4">
        <path d="M 620.864013671875 490.0437316894531 C 615.2618408203125 490.0437316894531 609.82666015625 488.9463500976562 604.7093505859375 486.7820739746094 C 599.7672729492188 484.69189453125 595.3292846679688 481.6999206542969 591.5185546875 477.8892211914062 C 587.7078857421875 474.0785217285156 584.7158813476562 469.6405029296875 582.6256713867188 464.6984558105469 C 580.46142578125 459.5811462402344 579.364013671875 454.1459350585938 579.364013671875 448.5437622070312 C 579.364013671875 442.9415588378906 580.4613647460938 437.506103515625 582.6256713867188 432.3883666992188 C 584.7158813476562 427.44580078125 587.7078247070312 423.0072631835938 591.5184936523438 419.1959838867188 C 595.3292236328125 415.3846130371094 599.7672119140625 412.3920593261719 604.709228515625 410.3014831542969 C 609.82666015625 408.1366577148438 615.2619018554688 407.0390014648438 620.864013671875 407.0390014648438 C 626.4662475585938 407.0390014648438 631.9015502929688 408.1366577148438 637.01904296875 410.3014831542969 C 641.9609985351562 412.3920593261719 646.3989868164062 415.3846130371094 650.209716796875 419.1960144042969 C 654.0203247070312 423.0072631835938 657.0122680664062 427.44580078125 659.1024169921875 432.3883666992188 C 661.2666625976562 437.506103515625 662.364013671875 442.9415588378906 662.364013671875 448.5437622070312 C 662.364013671875 450.2080688476562 662.2647705078125 451.8683776855469 662.0689697265625 453.4785766601562 C 661.552001953125 457.8519592285156 660.3455810546875 462.0941162109375 658.48388671875 466.0823059082031 C 656.6707153320312 469.966552734375 654.2710571289062 473.5384521484375 651.3515014648438 476.6987915039062 C 648.4413452148438 479.8490295410156 645.0806274414062 482.5191955566406 641.3627319335938 484.6351623535156 C 637.5667724609375 486.7955627441406 633.475830078125 488.3327026367188 629.2034912109375 489.203857421875 C 626.4722290039062 489.7611389160156 623.6663818359375 490.0437316894531 620.864013671875 490.0437316894531 Z" stroke="none"/>
        <path d="M 620.864013671875 488.5437316894531 C 623.614990234375 488.5437316894531 626.3048095703125 488.264404296875 628.90380859375 487.7341003417969 C 645.62255859375 484.3250122070312 658.5487060546875 470.4803161621094 660.5799560546875 453.2975463867188 C 660.7693481445312 451.73974609375 660.864013671875 450.1535949707031 660.864013671875 448.5437622070312 C 660.864013671875 426.450927734375 642.957275390625 408.5390014648438 620.864013671875 408.5390014648438 C 598.771240234375 408.5390014648438 580.864013671875 426.450927734375 580.864013671875 448.5437622070312 C 580.864013671875 470.6365661621094 598.771240234375 488.5437316894531 620.864013671875 488.5437316894531 M 620.864013671875 491.5437316894531 C 615.06005859375 491.5437316894531 609.42822265625 490.4064636230469 604.1250610351562 488.16357421875 C 599.004150390625 485.9977722167969 594.4058837890625 482.8978576660156 590.4578857421875 478.9498901367188 C 586.5099487304688 475.0018920898438 583.4099731445312 470.4035949707031 581.2442016601562 465.2827453613281 C 579.0012817382812 459.9795532226562 577.864013671875 454.3477478027344 577.864013671875 448.5437622070312 C 577.864013671875 442.7397766113281 579.0012817382812 437.1077270507812 581.244140625 431.8041076660156 C 583.409912109375 426.6827697753906 586.5098266601562 422.0839538574219 590.457763671875 418.1354370117188 C 594.40576171875 414.186767578125 599.0040283203125 411.0862426757812 604.1248168945312 408.9199829101562 C 609.4281616210938 406.6765441894531 615.0599975585938 405.5390014648438 620.864013671875 405.5390014648438 C 626.6680908203125 405.5390014648438 632.300048828125 406.6765441894531 637.6033935546875 408.9199829101562 C 642.7242431640625 411.0862121582031 647.322509765625 414.186767578125 651.2705078125 418.1354370117188 C 655.2183227539062 422.0839538574219 658.3182373046875 426.6827697753906 660.4839477539062 431.8041381835938 C 662.726806640625 437.1077270507812 663.864013671875 442.7397766113281 663.864013671875 448.5437622070312 C 663.864013671875 450.26611328125 663.7612915039062 451.9852294921875 663.5587768554688 453.6532592773438 C 663.022216796875 458.189453125 661.7720947265625 462.5845031738281 659.8430786132812 466.716796875 C 657.96435546875 470.7415161132812 655.47802734375 474.4424133300781 652.4533081054688 477.7166442871094 C 649.4384765625 480.9801940917969 645.9566650390625 483.7465209960938 642.1046752929688 485.9388122558594 C 638.1707763671875 488.177734375 633.9310302734375 489.770751953125 629.503173828125 490.6736145019531 C 626.6737060546875 491.2509460449219 623.7669067382812 491.5437316894531 620.864013671875 491.5437316894531 Z" stroke="none" fill="#fff"/>
      </g>
    </g>
    <path id="Контур_59" data-name="Контур 59" d="M692.256,470.83a40.019,40.019,0,0,1-31.676,34.437L647.057,491.74l-.029-.028V468.027c0-.109,0-.218,0-.322a.642.642,0,0,0-.307-.033h-5.691l.128-8.385H646.7c.094,0,.194,0,.279,0a.216.216,0,0,0,.052-.189v-6.2c0-.563.034-1.122.085-1.681a13.325,13.325,0,0,1,.4-2.192,10.3,10.3,0,0,1,1.539-3.338c.047-.066.095-.133.147-.194l14.417-3.438.871-.208Z" transform="translate(-31.676 -17.533)" fill="#003672"/>
    <path id="Контур_60" data-name="Контур 60" d="M662.974,443q0,2.869,0,5.739a.781.781,0,0,1-.019.294c-.086.057-.176.028-.266.028q-1.548.007-3.1,0c-.26,0-.526,0-.785.014a5.747,5.747,0,0,0-1.6.313,3.706,3.706,0,0,0-2.382,2.528,5.24,5.24,0,0,0-.227,1.529q-.007,2.678,0,5.36a.355.355,0,0,0,.019.185c.043.047.1.033.152.033h7.562a.742.742,0,0,1,.3.028c-.019.142-.033.275-.057.407-.4,2.637-.809,5.279-1.217,7.9a.327.327,0,0,1-.251.047h-6.448c-.076.052-.062.109-.062.161s0,.128,0,.194c0,6.468,0,17.126,0,23.712h-9.077V467.769c0-.109,0-.218,0-.322a.642.642,0,0,0-.307-.033h-6.747c-.09,0-.18,0-.256,0-.062-.052-.043-.114-.048-.166v-7.86c0-.1,0-.213,0-.317a.537.537,0,0,1,.28-.038h6.747c.094,0,.194,0,.279,0a.216.216,0,0,0,.052-.189v-6.2c0-.563.034-1.122.085-1.681a13.325,13.325,0,0,1,.4-2.192,10.3,10.3,0,0,1,1.539-3.338c.047-.066.095-.133.147-.194a9.013,9.013,0,0,1,3.551-2.836,11.166,11.166,0,0,1,2.723-.829,16.007,16.007,0,0,1,2.812-.213c.6,0,1.2.033,1.795.071.706.043,1.411.109,2.111.189.473.052.952.114,1.425.18l.436.057c.133.019.265.047.384.066.062.052.048.109.052.161Z" transform="translate(-30.164 -17.275)" fill="#fff"/>
  </g>
</svg>
