<svg xmlns="http://www.w3.org/2000/svg" width="85.988" height="85.993" viewBox="0 0 85.988 85.993">
  <g id="Сгруппировать_97" data-name="Сгруппировать 97" transform="translate(-99.632 -405.501)">
    <g id="Сгруппировать_92" data-name="Сгруппировать 92" transform="translate(102.632 408.501)">
      <g id="Контур_65" data-name="Контур 65" transform="translate(-102.632 -408.501)" fill="#0054a4">
        <path d="M 142.6255187988281 489.9937438964844 C 137.0242919921875 489.9937438964844 131.5899353027344 488.8965148925781 126.4734268188477 486.7325439453125 C 121.5321655273438 484.6426696777344 117.094841003418 481.651123046875 113.2847213745117 477.8409423828125 C 109.4745941162109 474.0307922363281 106.4830627441406 469.5934143066406 104.3932037353516 464.652099609375 C 102.2292327880859 459.5355224609375 101.1320037841797 454.10107421875 101.1320037841797 448.4997253417969 C 101.1320037841797 442.8983459472656 102.2292327880859 437.4636840820312 104.3931884765625 432.3466491699219 C 106.4830551147461 427.4048461914062 109.4745712280273 422.9669494628906 113.2846374511719 419.1562194824219 C 117.0948104858398 415.3453979492188 121.5321273803711 412.353271484375 126.4733276367188 410.2629699707031 C 131.5899353027344 408.0984497070312 137.0243225097656 407.0009765625 142.6255187988281 407.0009765625 C 148.2269439697266 407.0009765625 153.6614837646484 408.0984497070312 158.7781982421875 410.2629699707031 C 163.7194671630859 412.3532409667969 168.1568450927734 415.3453674316406 171.9670257568359 419.1562194824219 C 175.7770690917969 422.9669189453125 178.7685699462891 427.4048461914062 180.8584136962891 432.3466491699219 C 183.0223388671875 437.4636535644531 184.1195373535156 442.8983459472656 184.1195373535156 448.4997253417969 C 184.1195373535156 450.1661682128906 184.0204467773438 451.8262329101562 183.8249816894531 453.433837890625 C 183.3080749511719 457.8065795898438 182.1018524169922 462.0481567382812 180.2404022216797 466.0357666015625 C 178.427490234375 469.91943359375 176.0281372070312 473.4908142089844 173.1089935302734 476.6506958007812 C 170.19921875 479.8004760742188 166.8389587402344 482.4702453613281 163.1215362548828 484.5859069824219 C 159.3260345458984 486.7460327148438 155.2355804443359 488.2829284667969 150.9637908935547 489.1539611816406 C 148.2328491210938 489.711181640625 145.4273834228516 489.9937438964844 142.6255187988281 489.9937438964844 Z" stroke="none"/>
        <path d="M 142.6255187988281 488.4937438964844 C 145.3765411376953 488.4937438964844 148.0655364990234 488.2144165039062 150.6640930175781 487.6842041015625 C 167.3808135986328 484.2756042480469 180.3050079345703 470.4329833984375 182.3359527587891 453.2528076171875 C 182.5253143310547 451.6952514648438 182.6195373535156 450.1093139648438 182.6195373535156 448.4997253417969 C 182.6195373535156 426.4102172851562 164.7154998779297 408.5009765625 142.6255187988281 408.5009765625 C 120.536506652832 408.5009765625 102.6320037841797 426.4102172851562 102.6320037841797 448.4997253417969 C 102.6320037841797 470.5892333984375 120.536506652832 488.4937438964844 142.6255187988281 488.4937438964844 M 142.6255187988281 491.4937438964844 C 136.8224487304688 491.4937438964844 131.1915283203125 490.3566589355469 125.8891372680664 488.1140441894531 C 120.76904296875 485.9485473632812 116.1714553833008 482.8490295410156 112.2240600585938 478.901611328125 C 108.2766418457031 474.9541625976562 105.1771621704102 470.3565368652344 103.0116806030273 465.2363891601562 C 100.7690963745117 459.9339294433594 99.63200378417969 454.3028869628906 99.63200378417969 448.4997253417969 C 99.63200378417969 442.6965637207031 100.7690811157227 437.0653076171875 103.0116424560547 431.7624206542969 C 105.1771087646484 426.6418151855469 108.2765655517578 422.0436401367188 112.2238845825195 418.0956420898438 C 116.1713256835938 414.1475219726562 120.768913269043 411.0474548339844 125.8889083862305 408.8815002441406 C 131.1914367675781 406.6383361816406 136.8224487304688 405.5009765625 142.6255187988281 405.5009765625 C 148.4288177490234 405.5009765625 154.0599822998047 406.6383361816406 159.3625946044922 408.8815002441406 C 164.4826812744141 411.0474243164062 169.0803070068359 414.1475219726562 173.0277709960938 418.0956420898438 C 176.9750823974609 422.0436401367188 180.0745086669922 426.6418151855469 182.2399597167969 431.7624206542969 C 184.4824829101562 437.0653076171875 185.6195373535156 442.696533203125 185.6195373535156 448.4997253417969 C 185.6195373535156 450.2243957519531 185.5169830322266 451.9433898925781 185.3147125244141 453.6090698242188 C 184.7781372070312 458.1443481445312 183.5281982421875 462.5387573242188 181.599609375 466.6702270507812 C 179.7210998535156 470.6944274902344 177.2351379394531 474.394775390625 174.2107849121094 477.6685485839844 C 171.1963195800781 480.931640625 167.7149810791016 483.6976013183594 163.8634643554688 485.8895874023438 C 159.9300384521484 488.128173828125 155.6907958984375 489.7209777832031 151.2634735107422 490.6237182617188 C 148.4342193603516 491.2009887695312 145.5278625488281 491.4937438964844 142.6255187988281 491.4937438964844 Z" stroke="none" fill="#fff"/>
      </g>
    </g>
    <path id="Контур_66" data-name="Контур 66" d="M166.56,511.167l-20.4-20.4.6-38.226,38.164-1.012,20.616,20.616s.851,14.665-12.371,27.937A40.989,40.989,0,0,1,166.56,511.167Z" transform="translate(-22.92 -22.657)" fill="#003672"/>
    <g id="Сгруппировать_96" data-name="Сгруппировать 96" transform="translate(120.448 426.159)">
      <g id="Сгруппировать_95" data-name="Сгруппировать 95">
        <g id="Сгруппировать_93" data-name="Сгруппировать 93">
          <path id="Контур_67" data-name="Контур 67" d="M175.108,490.475H149.779a9.418,9.418,0,0,1-9.514-9.3V455.1a9.418,9.418,0,0,1,9.514-9.3h25.329a9.417,9.417,0,0,1,9.513,9.3v26.083A9.417,9.417,0,0,1,175.108,490.475Zm-25.329-40.846a5.585,5.585,0,0,0-5.685,5.467v26.083a5.585,5.585,0,0,0,5.685,5.467h25.329a5.585,5.585,0,0,0,5.684-5.467V455.1a5.585,5.585,0,0,0-5.684-5.467Z" transform="translate(-140.265 -445.8)" fill="#fff"/>
        </g>
        <g id="Сгруппировать_94" data-name="Сгруппировать 94" transform="translate(10.583 15.476)">
          <path id="Контур_68" data-name="Контур 68" d="M174.214,501.681a11.6,11.6,0,1,1,11.6-11.595A11.608,11.608,0,0,1,174.214,501.681Zm0-19.361a7.766,7.766,0,1,0,7.766,7.766A7.773,7.773,0,0,0,174.214,482.32Z" transform="translate(-162.62 -478.491)" fill="#fff"/>
        </g>
        <path id="Контур_69" data-name="Контур 69" d="M213.1,461.242a2.712,2.712,0,1,1-2.713-2.712A2.712,2.712,0,0,1,213.1,461.242Z" transform="translate(-175.761 -452.503)" fill="#fff"/>
      </g>
    </g>
  </g>
</svg>
